<?xml version="1.0" encoding="UTF-8"?>
<svg xmlns="http://www.w3.org/2000/svg" viewBox="540 322 840 136" role="img" aria-label="Garden">
  <defs>
    <style>
      .logo-fill {
        fill: #fff;
        fill-rule: evenodd;
      }
    </style>
  </defs>
  <g class="logo-fill">
    <path d="M1243.74,441.77c1.23,8.85-12.33,3.74-17.5,3.19-33.27-3.55-50.46,5.92-54.54,8.57-.67.44-1.45.67-2.25.67h-36.97c-2.28,0-4.14-1.85-4.14-4.14v-120.22c0-2.28,1.85-4.14,4.14-4.14h37.56c.94,0,1.84.32,2.58.9,3.45,2.74,14.74,10.74,28.33,10.24,8.76-.33,14.5.86,14.94,5.09.57,5.52-5.1,4.23-9.6,3.49-16.04-2.66-27.2.86-36.17,5.1,13.3,16.02,36,17.57,42.68,17.48,8.46-.12,11.61,1.77,12.06,5.29s-2.27,5.21-7.46,4.4c-31.81-4.94-45.19,5.32-45.19,5.32,0,0,12.59,18.61,49.42,18.31,13.51-.11,13.77,4.17,13.24,6.78-1.11,5.48-11.06,2.61-14.39,2.18-31.57-4.08-44.91,6.1-48.64,8.29,16.57,16.41,31.67,17.33,56.86,17.49,9.96.07,14.54,2,15.05,5.7Z"/>
    <path d="M1380,329.85v120.22c0,2.28-1.85,4.14-4.14,4.14h-85.48c24.07-8.91,28.92-35.91,28.92-35.91-17.24-2.74-35.02,2.35-47.57,13.69-4.69,4.24-10.88,13.54-15.9,8.03-5.42-5.95,2.82-11.99,8.97-14.68,36.26-15.88,35.84-36.22,35.84-39.73-5.87-2.41-29.13-1.64-43.79,14.9-1.51,1.71-7.27,9.22-12.09,5.94-1.92-1.31-5.06-8.76,5.9-13.48,30.12-12.99,34.43-29.76,34.37-36.28-7.45-2.88-26.19-.78-39.12,11.63-1.28,1.23-8.66,8.3-12.32,3.74-2.91-3.63-1.41-9.37,8.53-12.7,29.61-9.93,29.3-29.45,29.3-29.45,0,0-13.4-1.38-25.32,2.35-6.37,2-15.76,9.78-17.51,10.56-3.82,1.7-5.91-1.47-5.35-4.56.63-3.5,3.39-5.43,6.63-6.34,6.65-1.86,12.16-4.49,14.38-5.62.71-.36,1.5-.55,2.3-.55,7.45,0,45.96,0,54,0,1.65,0,3.13.97,3.79,2.48l26.46,60.74c.31.72,1.02,1.18,1.81,1.18h0c1.09,0,1.97-.88,1.97-1.97v-58.32c0-2.28,1.85-4.14,4.14-4.14h37.14c2.28,0,4.14,1.85,4.14,4.14Z"/>
    <path d="M923.86,451.86l-16.37-33.96h-17.46v32.17c0,2.28-1.85,4.14-4.14,4.14h-36.02c-2.28,0-4.14-1.85-4.14-4.14v-120.19c0-2.28,1.85-4.14,4.14-4.14h61.46c37.43,0,54.87,14.68,54.87,46.2,0,16.83-5.02,28.66-15.34,36.19l-2.68,1.95,20.4,38.02c1.48,2.76-.52,6.09-3.64,6.09h-37.37c-1.59,0-3.04-.91-3.73-2.34ZM890.03,386.63h16.29c11.26,0,16.97-4.94,16.97-14.69,0-6.81-2.94-14.92-16.97-14.92h-16.29v29.61Z"/>
    <path d="M612.97,457.92c-42.96,0-72.97-27.93-72.97-67.92s30.01-67.92,72.97-67.92c33.53,0,60.24,19.95,67.01,47.19.65,2.62-1.31,5.16-4.01,5.16h-38.28c-1.24,0-2.43-.54-3.2-1.51-4.26-5.4-11.42-9.47-19.97-9.47-14.82,0-25.57,11.16-25.57,26.55s7.88,28.78,25.48,29.22h.97c9.79.01,15.34-7.64,16.37-9.19.12-.17.17-.37.17-.58h0c0-.59-.48-1.07-1.07-1.07h-9.6c-2.28,0-4.14-1.85-4.14-4.14v-11.78c0-2.28,1.85-4.14,4.14-4.14h56.06c2.28,0,4.14,1.85,4.14,4.14v57.62c0,2.28-1.85,4.14-4.14,4.14h-23.03c-2.28,0-4.14-1.85-4.14-4.14v-6.77c0-.5-.61-.76-.96-.39-3.44,3.57-16.01,14.99-36.24,14.99Z"/>
    <path d="M788.99,451.01l-4.28-18.34h-43.03l-4.28,18.34c-.44,1.87-2.11,3.2-4.03,3.2h-38.65c-2.77,0-4.76-2.67-3.96-5.33l36.1-120.19c.53-1.75,2.14-2.95,3.96-2.95h64.74c1.83,0,3.44,1.2,3.96,2.95l36.1,120.19c.8,2.65-1.19,5.33-3.96,5.33h-38.65c-1.92,0-3.59-1.32-4.03-3.2ZM749.28,399.64h27.84l-8.15-35.23h-11.53l-8.15,35.23Z"/>
    <path d="M983.24,450.07v-120.19c0-2.28,1.85-4.14,4.14-4.14h65.88c42.8,0,67.35,23.41,67.35,64.23s-23.92,64.23-67.35,64.23h-65.88c-2.28,0-4.14-1.85-4.14-4.14ZM1027.54,415.16h18.57c17.85,0,28.08-9.19,28.08-25.19s-10.23-25.19-28.08-25.19h-18.57v50.38Z"/>
  </g>
</svg>
